<svg width="147" height="36" viewBox="0 0 147 36" fill="none" xmlns="http://www.w3.org/2000/svg">
<g clip-path="url(#clip0_218_3395)">
<path fill-rule="evenodd" clip-rule="evenodd" d="M7.72423 30.4312C6.1853 28.9946 4.95782 27.2577 4.11776 25.328C3.2777 23.3983 2.84292 21.3169 2.84033 19.2126C2.83916 17.2575 3.21487 15.3205 3.94696 13.5074C8.98578 12.1733 13.7147 14.4288 17.5437 17.7126V17.731C18.333 18.5934 17.8904 19.2936 16.9239 19.5995C11.3908 21.8772 8.10048 25.3637 7.7021 30.4312" fill="#0091D3"/>
<path fill-rule="evenodd" clip-rule="evenodd" d="M21.0774 3.76637C23.1914 4.0459 25.2284 4.74401 27.069 5.81983C28.9096 6.89565 30.517 8.32757 31.7968 10.0317C32.9732 11.6039 33.8371 13.3866 34.3421 15.2836C31.0702 19.2455 25.8838 20.13 20.8044 19.6693H20.7823C19.624 19.4224 19.5576 18.6042 20.1552 17.8045C23.2574 12.7922 23.8181 8.08579 21.0774 3.7627" fill="#FFCC00"/>
<path fill-rule="evenodd" clip-rule="evenodd" d="M4.46338 12.3688C5.42075 10.4741 6.7493 8.79081 8.37018 7.41889C9.99106 6.04698 11.8712 5.01435 13.8992 4.38227C15.8049 3.77815 17.8053 3.52831 19.8012 3.64517C22.6562 7.90192 21.9148 12.9842 19.8934 17.5469V17.569C19.2958 18.5678 18.4732 18.3724 17.883 17.569C13.9471 13.1464 9.52802 11.1747 4.46338 12.3761" fill="#FFCC00"/>
<path fill-rule="evenodd" clip-rule="evenodd" d="M26.3562 32.9892C24.4516 33.9755 22.371 34.5769 20.2335 34.759C18.096 34.9411 15.9436 34.7004 13.8993 34.0506C11.9989 33.4524 10.2265 32.5064 8.67236 31.2607C8.93058 26.1783 12.5935 22.4965 16.9794 19.9609H17.0015C18.086 19.4928 18.6357 20.1231 18.632 21.1108C19.1484 26.9376 21.5313 31.0616 26.3562 33.0002" fill="#0091D3"/>
<path fill-rule="evenodd" clip-rule="evenodd" d="M34.6079 16.5112C34.9825 18.5767 34.9262 20.6971 34.4425 22.7398C33.9588 24.7825 33.0582 26.7034 31.7971 28.3822C30.6128 29.9693 29.1414 31.3206 27.4591 32.3663C22.5789 30.5567 20.1148 26.0235 18.9971 21.1771V21.1476C18.8791 19.9977 19.6648 19.6734 20.6239 19.994C26.4705 21.3171 31.2401 20.3847 34.6116 16.5112" fill="#FFCC00"/>
<path fill-rule="evenodd" clip-rule="evenodd" d="M18.8457 -0.000228395C19.6334 0.00047377 20.4203 0.0460115 21.2028 0.136145C23.1726 2.80076 24.0358 5.59806 23.9251 8.50592C23.8218 11.2627 22.8406 14.1153 21.1069 17.0526C20.952 17.3106 20.7786 17.5686 20.6495 17.8413C20.5067 18.0889 20.446 18.3753 20.4761 18.6595C20.5056 18.7582 20.5586 18.8484 20.6305 18.9222C20.7025 18.996 20.7913 19.0513 20.8893 19.0833C21.2344 19.2082 21.5994 19.2693 21.9664 19.2639C26.1605 19.5551 30.362 19.0022 33.6855 16.8462C35.0983 15.9296 36.3125 14.739 37.2562 13.345L37.496 12.9764C37.7828 13.7989 38.0132 14.6399 38.1858 15.4936C36.3885 17.977 33.8003 19.7768 30.8452 20.5981C28.1266 21.3352 25.0391 21.3352 21.6233 20.6239C21.3209 20.5649 21.0184 20.4838 20.7122 20.4469C20.4252 20.3876 20.1268 20.4212 19.8601 20.5428C19.7739 20.5982 19.7026 20.6738 19.6524 20.7631C19.6023 20.8524 19.5748 20.9527 19.5724 21.0551C19.5573 21.4121 19.6111 21.7687 19.731 22.1054C20.738 26.0821 22.5824 29.8081 25.7141 32.2221C26.3645 32.724 27.0626 33.161 27.7983 33.5268C28.5783 33.9123 29.3936 34.222 30.2329 34.4519L30.6497 34.5624C29.9362 35.0854 29.1882 35.5594 28.4106 35.9813C25.2125 34.9531 22.8332 33.1877 21.1622 30.7664C19.5871 28.4813 18.6576 25.6067 18.2887 22.2418C18.2592 21.9396 18.2408 21.6374 18.1817 21.3388C18.1445 21.0525 18.015 20.786 17.8129 20.5796C17.7303 20.5171 17.6343 20.4749 17.5324 20.4563C17.4305 20.4377 17.3257 20.4434 17.2264 20.4728C16.8747 20.568 16.5434 20.7266 16.2488 20.9408C12.6781 23.1079 9.60911 25.9641 8.22583 29.6165C7.93727 30.3709 7.72594 31.1525 7.59505 31.9494C7.45918 32.7898 7.40974 33.6419 7.4475 34.4924V34.9126C6.72065 34.414 6.02807 33.8673 5.37443 33.2762C5.32404 30.2543 6.33123 27.3097 8.22214 24.9506C9.96691 22.7799 12.4789 21.0329 15.655 19.6509C15.939 19.5293 16.2304 19.4187 16.4997 19.2823C16.7668 19.1663 16.9893 18.9672 17.1341 18.7148C17.1686 18.6192 17.1795 18.5167 17.166 18.416C17.1526 18.3153 17.115 18.2193 17.0567 18.1361C16.8506 17.8399 16.5933 17.5828 16.2968 17.3769C13.0802 14.7381 9.34352 12.7774 5.3523 12.6189C4.5259 12.5871 3.69835 12.634 2.88084 12.759C2.01958 12.8913 1.17331 13.1073 0.354055 13.404L-0.059082 13.5551C0.204498 12.7245 0.524944 11.913 0.89999 11.1263C3.8257 10.1436 6.99616 10.1656 9.90789 11.189C12.5638 12.1398 15.0463 13.9273 17.3776 16.4408C17.5763 16.6738 17.7869 16.8964 18.0084 17.1079C18.2043 17.32 18.4627 17.4646 18.7461 17.5207C18.8492 17.5238 18.9517 17.5028 19.0452 17.4593C19.1387 17.4158 19.2207 17.351 19.2847 17.27C19.5117 16.9913 19.6843 16.6726 19.7937 16.3302C21.3762 12.5305 22.1324 8.46169 21.0553 4.71722C20.8311 3.93972 20.5295 3.18658 20.1552 2.46906C19.7592 1.70871 19.2857 0.991158 18.7424 0.327787L18.4732 -0.00390625H18.7793" fill="#C71157"/>
<path d="M137.081 22.2455C137.263 22.2466 137.443 22.211 137.611 22.1409C137.778 22.0708 137.93 21.9676 138.057 21.8376C138.183 21.7075 138.283 21.5532 138.348 21.3839C138.414 21.2146 138.445 21.0338 138.439 20.8524V16.9126L140.486 19.4924C140.594 19.6023 140.724 19.6895 140.866 19.7491C141.008 19.8086 141.161 19.8393 141.316 19.8393C141.47 19.8393 141.623 19.8086 141.766 19.7491C141.908 19.6895 142.037 19.6023 142.146 19.4924L144.193 16.9126V20.8634C144.193 21.2261 144.337 21.5738 144.594 21.8303C144.851 22.0867 145.199 22.2307 145.562 22.2307C145.925 22.2307 146.273 22.0867 146.529 21.8303C146.786 21.5738 146.93 21.2261 146.93 20.8634V13.1386C146.934 12.9574 146.902 12.7773 146.835 12.6088C146.768 12.4403 146.668 12.287 146.541 12.1578C146.413 12.0286 146.261 11.9262 146.094 11.8567C145.926 11.7871 145.747 11.7518 145.565 11.7529C145.35 11.7587 145.139 11.8127 144.947 11.911C144.756 12.0092 144.589 12.1491 144.459 12.3204L141.338 16.4113L138.217 12.3204C138.087 12.1487 137.921 12.0085 137.729 11.9102C137.537 11.812 137.326 11.7582 137.111 11.7529C136.929 11.7498 136.748 11.7835 136.58 11.8517C136.411 11.92 136.258 12.0215 136.13 12.1501C136.001 12.2788 135.9 12.4319 135.832 12.6005C135.764 12.7691 135.731 12.9496 135.735 13.1312V20.845C135.729 21.0279 135.761 21.21 135.828 21.3803C135.895 21.5506 135.996 21.7055 136.124 21.8358C136.253 21.966 136.407 22.0688 136.576 22.1379C136.746 22.2071 136.928 22.2412 137.111 22.2381L137.081 22.2455ZM128.118 14.2443C129.593 14.2443 130.7 15.4199 130.7 16.9973C130.718 17.3471 130.664 17.6969 130.543 18.0254C130.421 18.3539 130.234 18.6542 129.992 18.9079C129.75 19.1617 129.46 19.3637 129.137 19.5016C128.815 19.6395 128.468 19.7103 128.118 19.7099C126.616 19.7099 125.535 18.5747 125.535 16.9973C125.535 15.4199 126.598 14.2516 128.099 14.2516L128.118 14.2443ZM128.118 11.7529C127.43 11.7514 126.748 11.8853 126.112 12.147C125.476 12.4087 124.898 12.7929 124.41 13.2779C123.923 13.7628 123.536 14.3389 123.271 14.9733C123.007 15.6077 122.87 16.288 122.868 16.9752C122.867 17.6625 123.001 18.3433 123.263 18.9788C123.525 19.6143 123.909 20.192 124.395 20.679C124.88 21.166 125.457 21.5527 126.092 21.8171C126.727 22.0814 127.408 22.2182 128.095 22.2197C128.8 22.2475 129.502 22.1332 130.161 21.8835C130.821 21.6337 131.422 21.2537 131.931 20.7662C132.44 20.2787 132.845 19.6937 133.122 19.0462C133.399 18.3987 133.543 17.702 133.544 16.9977C133.546 16.2935 133.405 15.5962 133.131 14.9475C132.856 14.2988 132.454 13.7121 131.947 13.2225C131.44 12.7328 130.84 12.3503 130.182 12.0978C129.524 11.8453 128.822 11.728 128.118 11.7529ZM113.363 11.7529C113.18 11.7483 112.999 11.7808 112.83 11.8485C112.661 11.9162 112.507 12.0177 112.378 12.1466C112.249 12.2756 112.148 12.4294 112.081 12.5987C112.014 12.768 111.982 12.9492 111.987 13.1312V20.845C111.977 21.0303 112.005 21.2156 112.07 21.3896C112.134 21.5637 112.233 21.7228 112.361 21.8574C112.489 21.9919 112.643 22.0991 112.813 22.1723C112.984 22.2455 113.168 22.2833 113.353 22.2833C113.539 22.2833 113.723 22.2455 113.893 22.1723C114.064 22.0991 114.218 21.9919 114.346 21.8574C114.474 21.7228 114.573 21.5637 114.637 21.3896C114.701 21.2156 114.73 21.0303 114.72 20.845V13.1386C114.728 12.9557 114.699 12.773 114.633 12.6022C114.567 12.4313 114.466 12.2759 114.337 12.1457C114.209 12.0155 114.054 11.9134 113.884 11.8458C113.713 11.7782 113.531 11.7466 113.348 11.7529H113.363ZM120.851 20.1411L118.032 16.6214L120.589 13.9273C120.84 13.6809 120.984 13.3462 120.991 12.9949C120.99 12.6651 120.858 12.3492 120.624 12.1164C120.391 11.8836 120.074 11.7529 119.744 11.7529C119.568 11.7471 119.393 11.7805 119.232 11.8506C119.07 11.9207 118.927 12.0258 118.811 12.1583L115.631 15.5821C115.345 15.8437 115.171 16.2053 115.144 16.5919C115.164 16.9531 115.307 17.2965 115.55 17.5649L118.973 21.7958C119.083 21.9425 119.227 22.0597 119.393 22.1369C119.559 22.2141 119.742 22.2489 119.925 22.2381C120.09 22.2396 120.254 22.2082 120.407 22.1458C120.56 22.0834 120.699 21.9912 120.816 21.8746C120.933 21.758 121.026 21.6193 121.089 21.4666C121.152 21.3139 121.184 21.1502 121.183 20.985C121.174 20.6736 121.057 20.375 120.851 20.1411ZM104.919 13.9642C105.197 13.9455 105.475 13.9839 105.737 14.0771C105.999 14.1703 106.239 14.3163 106.443 14.506C106.646 14.6956 106.808 14.925 106.919 15.1798C107.03 15.4347 107.088 15.7096 107.088 15.9875H102.529C102.835 14.7565 103.724 13.9642 104.919 13.9642ZM104.982 11.7529C104.291 11.7423 103.606 11.871 102.967 12.1313C102.327 12.3916 101.747 12.7782 101.261 13.2679C100.774 13.7575 100.392 14.3402 100.136 14.9811C99.8808 15.6219 99.7573 16.3077 99.7732 16.9973C99.7732 19.9936 102.105 22.2381 105.266 22.2381C106.394 22.2508 107.501 21.9275 108.445 21.3094C108.651 21.206 108.824 21.0481 108.945 20.8531C109.067 20.6581 109.133 20.4335 109.135 20.2037C109.139 20.0575 109.113 19.9122 109.058 19.7764C109.004 19.6407 108.922 19.5174 108.819 19.414C108.716 19.3106 108.592 19.2293 108.456 19.175C108.32 19.1207 108.175 19.0945 108.029 19.0981C107.82 19.1018 107.617 19.1644 107.442 19.2787C106.819 19.6747 106.097 19.8891 105.358 19.8978C103.882 19.8978 102.864 19.1607 102.54 17.915H108.254C109.146 17.915 109.755 17.3696 109.755 16.5182V16.4592C109.744 13.7467 107.715 11.7529 104.989 11.7529H104.982ZM96.1288 11.9777H90.9719C90.7875 11.9747 90.6043 12.0088 90.4334 12.0779C90.2624 12.147 90.1071 12.2498 89.9767 12.3801C89.8462 12.5104 89.7434 12.6656 89.6742 12.8364C89.605 13.0072 89.5709 13.1902 89.5739 13.3745V14.3659C89.5739 17.9298 88.8361 19.2049 87.7516 19.7688C87.2831 20.0526 86.918 20.2774 86.918 20.9224C86.9189 21.0834 86.9517 21.2426 87.0143 21.3909C87.077 21.5393 87.1684 21.6738 87.2832 21.7867C87.398 21.8997 87.534 21.989 87.6833 22.0493C87.8327 22.1097 87.9925 22.1401 88.1537 22.1386C88.4189 22.136 88.6809 22.0809 88.9246 21.9764C91.1932 21.0256 92.2888 18.7995 92.2888 15.1951V14.2848H94.8008V20.845C94.8008 21.2047 94.9438 21.5497 95.1984 21.804C95.453 22.0584 95.7982 22.2013 96.1583 22.2013C96.5183 22.2013 96.8635 22.0584 97.1181 21.804C97.3727 21.5497 97.5157 21.2047 97.5157 20.845V13.3818C97.5187 13.1992 97.4851 13.0177 97.4171 12.8481C97.349 12.6785 97.2478 12.5242 97.1193 12.3941C96.9909 12.2641 96.8378 12.1609 96.669 12.0907C96.5001 12.0204 96.319 11.9845 96.1361 11.985L96.1288 11.9777ZM81.4181 13.9642C81.6965 13.9444 81.976 13.9822 82.2392 14.0751C82.5024 14.1681 82.7436 14.3142 82.9478 14.5044C83.152 14.6946 83.3148 14.9247 83.426 15.1805C83.5373 15.4363 83.5946 15.7123 83.5944 15.9912H79.0277C79.3339 14.7565 80.2229 13.9642 81.4181 13.9642ZM81.4808 11.7529C80.7904 11.7423 80.105 11.871 79.4656 12.1313C78.8262 12.3916 78.246 12.7782 77.7597 13.2679C77.2734 13.7575 76.891 14.3402 76.6354 14.9811C76.3798 15.6219 76.2563 16.3077 76.2723 16.9973C76.2723 19.9936 78.6035 22.2381 81.7648 22.2381C82.8935 22.2508 84.0004 21.9275 84.9445 21.3094C85.1499 21.206 85.3228 21.0481 85.4445 20.8531C85.5662 20.6581 85.6318 20.4335 85.6343 20.2037C85.6378 20.0575 85.6116 19.9122 85.5573 19.7764C85.5029 19.6407 85.4215 19.5174 85.318 19.414C85.2146 19.3106 85.0912 19.2293 84.9553 19.175C84.8194 19.1207 84.6739 19.0945 84.5277 19.0981C84.3178 19.1011 84.1131 19.1637 83.9375 19.2787C83.3108 19.6637 82.589 19.8666 81.8533 19.8646C80.3778 19.8646 79.3597 19.1275 79.0351 17.8818H84.749C85.6417 17.8818 86.2503 17.3364 86.2503 16.485V16.4261C86.2429 13.7467 84.2141 11.7529 81.4808 11.7529ZM69.5477 22.2381C69.7308 22.2412 69.9126 22.2071 70.0821 22.1379C70.2517 22.0688 70.4054 21.966 70.534 21.8358C70.6627 21.7055 70.7635 21.5506 70.8305 21.3803C70.8974 21.21 70.9291 21.0279 70.9236 20.845V11.1153H74.107C74.2709 11.1182 74.4338 11.0884 74.5861 11.0276C74.7384 10.9669 74.877 10.8763 74.9938 10.7613C75.1106 10.6463 75.2033 10.5092 75.2664 10.358C75.3294 10.2068 75.3617 10.0445 75.3611 9.88062C75.3653 9.71578 75.3356 9.55184 75.2738 9.39894C75.212 9.24604 75.1194 9.10743 75.0019 8.99169C74.8843 8.87596 74.7442 8.78557 74.5903 8.7261C74.4364 8.66663 74.2719 8.63937 74.107 8.64598H65.0105C64.8457 8.64046 64.6815 8.66846 64.5279 8.72827C64.3742 8.78808 64.2344 8.87845 64.1167 8.99391C63.9991 9.10937 63.9062 9.2475 63.8436 9.39993C63.781 9.55235 63.7501 9.71589 63.7527 9.88062C63.7521 10.0448 63.7845 10.2074 63.8478 10.3589C63.9111 10.5103 64.0041 10.6476 64.1213 10.7627C64.2385 10.8777 64.3775 10.9682 64.5303 11.0287C64.683 11.0893 64.8463 11.1187 65.0105 11.1153H68.1902V20.8524C68.1843 21.0338 68.215 21.2146 68.2807 21.3839C68.3463 21.5532 68.4455 21.7075 68.5722 21.8376C68.699 21.9676 68.8507 22.0708 69.0183 22.1409C69.1859 22.211 69.366 22.2466 69.5477 22.2455V22.2381ZM56.8437 20.1153L52.3655 14.9334L56.3973 10.5809C56.5222 10.4637 56.6224 10.3229 56.692 10.1666C56.7617 10.0102 56.7995 9.84162 56.8031 9.67055C56.807 9.33813 56.6794 9.01762 56.448 8.77878C56.2165 8.53995 55.9 8.40215 55.5674 8.39537C55.3794 8.39281 55.1932 8.4314 55.0218 8.50845C54.8503 8.58549 54.6979 8.69911 54.5751 8.84131L49.7539 14.0415C49.5262 14.2751 49.3946 14.5855 49.385 14.9113C49.3975 15.2486 49.528 15.5707 49.7539 15.8217L54.8222 21.6816C54.9522 21.8528 55.1193 21.9925 55.3109 22.0901C55.5026 22.1878 55.7138 22.2409 55.9289 22.2455C56.2675 22.236 56.5894 22.0961 56.8273 21.855C57.0651 21.614 57.2005 21.2903 57.2052 20.9519C57.194 20.6397 57.0648 20.3434 56.8437 20.1226V20.1153ZM47.4632 8.39537C47.2795 8.3912 47.0969 8.42465 46.9266 8.49367C46.7563 8.56268 46.602 8.66578 46.4731 8.79663C46.3442 8.92749 46.2435 9.08332 46.1771 9.25453C46.1108 9.42574 46.0802 9.6087 46.0873 9.79216V20.8487C46.0777 21.034 46.1059 21.2193 46.1702 21.3933C46.2345 21.5674 46.3336 21.7265 46.4615 21.8611C46.5893 21.9956 46.7433 22.1028 46.9139 22.176C47.0845 22.2492 47.2683 22.287 47.454 22.287C47.6397 22.287 47.8234 22.2492 47.994 22.176C48.1647 22.1028 48.3186 21.9956 48.4465 21.8611C48.5743 21.7265 48.6734 21.5674 48.7377 21.3933C48.8021 21.2193 48.8303 21.034 48.8206 20.8487V9.79216C48.8256 9.61115 48.7941 9.431 48.7281 9.26237C48.662 9.09375 48.5627 8.94009 48.4361 8.81051C48.3095 8.68093 48.1582 8.57806 47.9911 8.50802C47.8239 8.43797 47.6444 8.40217 47.4632 8.40273V8.39537Z" fill="#C71157"/>
<path d="M144.794 30.4863C144.389 30.4863 144.141 30.291 144.141 29.9888C144.141 29.6866 144.363 29.5281 144.776 29.5281H145.753V29.5834C145.753 29.7065 145.727 29.8281 145.678 29.9409C145.628 30.0537 145.557 30.1554 145.467 30.2398C145.377 30.3242 145.272 30.3896 145.156 30.4319C145.04 30.4743 144.917 30.4928 144.794 30.4863ZM145.027 26.6202C144.425 26.5968 143.836 26.7978 143.374 27.1841C143.299 27.245 143.238 27.3205 143.193 27.4061C143.149 27.4917 143.123 27.5855 143.116 27.6817C143.117 27.7502 143.132 27.8178 143.16 27.8806C143.188 27.9433 143.228 28 143.277 28.0472C143.327 28.0945 143.386 28.1315 143.45 28.1561C143.514 28.1806 143.582 28.1922 143.651 28.1903C143.787 28.1858 143.918 28.1336 144.02 28.0428C144.259 27.8224 144.572 27.7001 144.898 27.7001C145.01 27.6813 145.125 27.6887 145.233 27.7216C145.342 27.7545 145.442 27.8121 145.525 27.8899C145.608 27.9677 145.671 28.0635 145.711 28.17C145.751 28.2764 145.765 28.3906 145.753 28.5035V28.7062H144.61C143.54 28.7062 142.884 29.2148 142.884 30.033C142.884 30.8512 143.522 31.4003 144.462 31.4003C144.955 31.4161 145.435 31.2404 145.801 30.9102C145.829 31.048 145.905 31.1716 146.015 31.2592C146.125 31.3469 146.262 31.3929 146.403 31.3893C146.483 31.3904 146.563 31.375 146.637 31.3443C146.711 31.3135 146.778 31.2679 146.834 31.2102C146.89 31.1526 146.934 31.0842 146.962 31.0091C146.991 30.9341 147.004 30.854 147 30.7738V28.5625C147 27.3315 146.281 26.6202 145.027 26.6202ZM140.383 31.4114C140.466 31.4125 140.548 31.3966 140.625 31.3647C140.702 31.3328 140.772 31.2855 140.83 31.2259C140.888 31.1662 140.933 31.0953 140.963 31.0176C140.992 30.9399 141.006 30.8569 141.002 30.7738V27.7775H141.987C142.058 27.7811 142.129 27.77 142.195 27.7449C142.261 27.7199 142.321 27.6814 142.372 27.6318C142.423 27.5823 142.462 27.5229 142.489 27.4572C142.515 27.3916 142.528 27.3212 142.526 27.2505C142.527 27.18 142.513 27.1101 142.487 27.045C142.46 26.9798 142.42 26.9208 142.37 26.8715C142.319 26.8222 142.259 26.7837 142.194 26.7582C142.128 26.7328 142.058 26.7209 141.987 26.7234H138.785C138.715 26.722 138.646 26.7345 138.581 26.7604C138.516 26.7863 138.456 26.8249 138.406 26.874C138.357 26.9232 138.317 26.9818 138.29 27.0465C138.263 27.1111 138.25 27.1805 138.25 27.2505C138.249 27.3207 138.262 27.3906 138.288 27.4557C138.315 27.5208 138.354 27.5799 138.404 27.6292C138.454 27.6786 138.514 27.7172 138.579 27.7427C138.645 27.7682 138.715 27.78 138.785 27.7775H139.763V30.7738C139.762 30.8573 139.778 30.9401 139.81 31.0174C139.841 31.0946 139.889 31.1646 139.948 31.2231C140.008 31.2816 140.079 31.3275 140.156 31.3579C140.234 31.3884 140.317 31.4028 140.401 31.4003L140.383 31.4114ZM135.414 30.2763C135.253 30.2765 135.093 30.243 134.946 30.178C134.799 30.1131 134.666 30.018 134.558 29.8989C134.45 29.7799 134.367 29.6395 134.317 29.4867C134.266 29.334 134.247 29.1723 134.263 29.0121C134.247 28.8523 134.265 28.6909 134.315 28.5385C134.366 28.3861 134.448 28.2461 134.557 28.1278C134.666 28.0094 134.798 27.9154 134.946 27.8519C135.094 27.7883 135.253 27.7567 135.414 27.7591C135.736 27.7765 136.039 27.9167 136.261 28.1508C136.483 28.3849 136.607 28.6952 136.607 29.0177C136.607 29.3402 136.483 29.6504 136.261 29.8845C136.039 30.1186 135.736 30.2588 135.414 30.2763ZM135.646 26.6313C135.385 26.6203 135.125 26.6668 134.884 26.7674C134.643 26.868 134.427 27.0204 134.252 27.2136C134.251 27.1354 134.235 27.058 134.205 26.986C134.174 26.9139 134.13 26.8486 134.074 26.7938C134.018 26.739 133.952 26.6958 133.879 26.6666C133.807 26.6375 133.729 26.623 133.651 26.6239C133.569 26.6209 133.488 26.6345 133.411 26.6638C133.335 26.693 133.266 26.7374 133.207 26.7942C133.149 26.851 133.102 26.9191 133.07 26.9944C133.039 27.0696 133.023 27.1505 133.023 27.232V32.4323C133.023 32.5975 133.089 32.7559 133.206 32.8727C133.323 32.9895 133.482 33.0551 133.647 33.0551C133.812 33.0551 133.971 32.9895 134.088 32.8727C134.205 32.7559 134.27 32.5975 134.27 32.4323V30.8475C134.445 31.0312 134.658 31.1754 134.893 31.2707C135.128 31.3661 135.381 31.4102 135.635 31.4003C136.919 31.4003 137.848 30.3831 137.848 29.0011C137.848 27.619 136.93 26.6202 135.646 26.6202V26.6313ZM129.563 27.7664C129.878 27.7906 130.171 27.9323 130.385 28.1633C130.599 28.3942 130.718 28.6974 130.718 29.0121C130.718 29.3269 130.599 29.6301 130.385 29.861C130.171 30.092 129.878 30.2337 129.563 30.2578C129.403 30.2596 129.244 30.2284 129.096 30.1663C128.948 30.1042 128.815 30.0125 128.704 29.8968C128.593 29.781 128.507 29.6438 128.451 29.4936C128.395 29.3433 128.371 29.1832 128.379 29.0232C128.368 28.8608 128.39 28.6979 128.444 28.5444C128.498 28.3909 128.584 28.2503 128.695 28.1313C128.806 28.0123 128.94 27.9175 129.09 27.8528C129.239 27.7881 129.401 27.755 129.563 27.7554V27.7664ZM129.563 26.6313C128.93 26.6313 128.323 26.8825 127.876 27.3297C127.428 27.7769 127.177 28.3834 127.177 29.0158C127.177 29.6482 127.428 30.2547 127.876 30.7019C128.323 31.1491 128.93 31.4003 129.563 31.4003C130.196 31.4003 130.803 31.1491 131.251 30.7019C131.699 30.2547 131.95 29.6482 131.95 29.0158C131.95 28.3834 131.699 27.7769 131.251 27.3297C130.803 26.8825 130.196 26.6313 129.563 26.6313ZM123.728 30.3389H123.709V27.6817H123.728C124.632 27.6817 125.178 28.1903 125.178 29.0121C125.178 29.834 124.632 30.3389 123.728 30.3389ZM121.079 29.0121C121.079 28.1792 121.625 27.6817 122.518 27.6817H122.536V30.3389H122.518C121.625 30.3389 121.079 29.8414 121.079 29.0121ZM126.395 29.0121C126.395 27.5932 125.344 26.6497 123.746 26.6313V24.9065C123.75 24.8235 123.736 24.7407 123.707 24.6632C123.677 24.5857 123.632 24.515 123.574 24.4557C123.516 24.3963 123.446 24.3494 123.369 24.3179C123.292 24.2864 123.21 24.271 123.127 24.2726C123.043 24.2716 122.961 24.2873 122.884 24.3189C122.807 24.3505 122.737 24.3973 122.678 24.4564C122.62 24.5156 122.574 24.586 122.543 24.6633C122.512 24.7406 122.498 24.8233 122.5 24.9065V26.6313C120.921 26.6497 119.858 27.5932 119.858 29.0121C119.858 30.431 120.921 31.393 122.5 31.4114V32.436C122.498 32.5191 122.512 32.6018 122.543 32.6792C122.574 32.7565 122.62 32.8268 122.678 32.886C122.737 32.9452 122.807 32.9919 122.884 33.0235C122.961 33.0551 123.043 33.0709 123.127 33.0699C123.21 33.0715 123.292 33.056 123.369 33.0245C123.446 32.9931 123.516 32.9462 123.574 32.8868C123.632 32.8274 123.677 32.7568 123.707 32.6792C123.736 32.6017 123.75 32.5189 123.746 32.436V31.4114C125.336 31.3819 126.384 30.42 126.384 29.0011L126.395 29.0121ZM114.347 31.4114C114.43 31.4114 114.512 31.3948 114.589 31.3626C114.665 31.3303 114.734 31.283 114.792 31.2236C114.85 31.1641 114.895 31.0937 114.925 31.0164C114.955 30.9392 114.97 30.8566 114.967 30.7738V28.9642L115.9 30.1436C115.947 30.1941 116.005 30.2343 116.068 30.2616C116.132 30.2889 116.2 30.3027 116.269 30.3021C116.338 30.3022 116.407 30.2882 116.47 30.261C116.534 30.2337 116.591 30.1938 116.638 30.1436L117.571 28.9642V30.7627C117.571 30.9279 117.637 31.0864 117.754 31.2032C117.871 31.32 118.029 31.3856 118.195 31.3856C118.36 31.3856 118.519 31.32 118.636 31.2032C118.752 31.0864 118.818 30.9279 118.818 30.7627V27.2505C118.82 27.1673 118.804 27.0847 118.773 27.0075C118.742 26.9304 118.696 26.8603 118.637 26.8015C118.578 26.7427 118.508 26.6963 118.431 26.6652C118.353 26.634 118.271 26.6187 118.187 26.6202C118.089 26.6225 117.993 26.6468 117.905 26.6915C117.818 26.7362 117.741 26.8 117.682 26.8782L116.258 28.7431L114.856 26.8635C114.796 26.7852 114.719 26.7213 114.631 26.6767C114.543 26.632 114.446 26.6077 114.347 26.6055C114.264 26.6045 114.182 26.6201 114.105 26.6515C114.029 26.6829 113.959 26.7293 113.9 26.7881C113.842 26.8469 113.796 26.9168 113.765 26.9937C113.734 27.0705 113.719 27.1529 113.72 27.2357V30.748C113.716 30.8327 113.729 30.9174 113.758 30.9969C113.788 31.0764 113.833 31.149 113.892 31.2101C113.951 31.2713 114.022 31.3197 114.1 31.3524C114.178 31.3852 114.263 31.4015 114.347 31.4003V31.4114ZM110.249 27.7664C110.58 27.7664 110.897 27.8977 111.131 28.1313C111.365 28.3649 111.496 28.6817 111.496 29.0121C111.496 29.3425 111.365 29.6594 111.131 29.893C110.897 30.1266 110.58 30.2578 110.249 30.2578C110.089 30.2596 109.93 30.2285 109.782 30.1663C109.635 30.1042 109.501 30.0124 109.391 29.8966C109.28 29.7808 109.194 29.6435 109.139 29.4933C109.084 29.3431 109.06 29.183 109.069 29.0232C109.057 28.861 109.078 28.6981 109.132 28.5447C109.186 28.3912 109.271 28.2505 109.382 28.1315C109.492 28.0124 109.627 27.9175 109.776 27.8528C109.925 27.7881 110.086 27.7549 110.249 27.7554V27.7664ZM110.249 26.6313C109.616 26.6313 109.009 26.8825 108.562 27.3297C108.114 27.7769 107.863 28.3834 107.863 29.0158C107.863 29.6482 108.114 30.2547 108.562 30.7019C109.009 31.1491 109.616 31.4003 110.249 31.4003C110.882 31.4003 111.489 31.1491 111.937 30.7019C112.384 30.2547 112.636 29.6482 112.636 29.0158C112.636 28.3834 112.384 27.7769 111.937 27.3297C111.489 26.8825 110.882 26.6313 110.249 26.6313ZM103.528 26.6313C103.445 26.6293 103.362 26.6442 103.285 26.6752C103.208 26.7062 103.138 26.7526 103.079 26.8116C103.02 26.8706 102.974 26.9409 102.944 27.0182C102.913 27.0956 102.899 27.1784 102.901 27.2615V30.7738C102.901 30.939 102.967 31.0974 103.084 31.2142C103.201 31.331 103.359 31.3967 103.525 31.3967C103.69 31.3967 103.849 31.331 103.965 31.2142C104.082 31.0974 104.148 30.939 104.148 30.7738V27.2615C104.153 27.1765 104.141 27.0914 104.111 27.0117C104.081 26.932 104.034 26.8595 103.974 26.799C103.915 26.7384 103.843 26.6912 103.763 26.6604C103.684 26.6296 103.599 26.6159 103.514 26.6202L103.528 26.6313ZM106.955 30.4495L105.671 28.8463L106.833 27.6006C106.891 27.5456 106.936 27.4798 106.968 27.4071C107 27.3344 107.017 27.2561 107.018 27.1768C107.017 27.1022 107.002 27.0285 106.973 26.9598C106.944 26.8912 106.902 26.8289 106.849 26.7765C106.796 26.7241 106.733 26.6827 106.664 26.6547C106.595 26.6266 106.521 26.6124 106.446 26.6129C106.366 26.6107 106.287 26.6261 106.214 26.6579C106.14 26.6897 106.075 26.7373 106.022 26.7971L104.572 28.3561C104.441 28.4761 104.361 28.6428 104.351 28.8205C104.361 28.9843 104.426 29.14 104.535 29.2628L106.096 31.1903C106.146 31.257 106.212 31.3103 106.288 31.3457C106.364 31.381 106.447 31.3973 106.531 31.393C106.606 31.3935 106.681 31.379 106.75 31.3505C106.82 31.3219 106.883 31.2799 106.936 31.2267C106.99 31.1736 107.032 31.1104 107.06 31.0409C107.089 30.9714 107.103 30.8969 107.103 30.8217C107.098 30.681 107.046 30.5459 106.955 30.4384V30.4495ZM97.7333 29.0858H96.9292C96.8361 29.0957 96.742 29.0858 96.653 29.0569C96.5639 29.0281 96.482 28.9808 96.4124 28.9183C96.3429 28.8557 96.2873 28.7793 96.2492 28.6938C96.2111 28.6084 96.1914 28.516 96.1914 28.4225C96.1914 28.0355 96.4754 27.7849 96.9292 27.7849H97.7333V29.0858ZM98.342 26.7345H96.8369C95.6824 26.7345 94.9188 27.4163 94.9188 28.4409C94.9122 28.6821 94.9601 28.9218 95.0591 29.142C95.1581 29.3621 95.3056 29.5571 95.4906 29.7124L94.9372 30.3315C94.8076 30.4484 94.7282 30.6108 94.7159 30.7849C94.7159 30.9491 94.7804 31.1068 94.8957 31.224C95.0109 31.3412 95.1676 31.4085 95.3319 31.4114C95.4242 31.4113 95.5153 31.3904 95.5983 31.3502C95.6814 31.3099 95.7542 31.2515 95.8115 31.1792L96.682 30.1362H97.7333V30.7738C97.7333 30.939 97.799 31.0974 97.9159 31.2142C98.0328 31.331 98.1914 31.3967 98.3567 31.3967C98.522 31.3967 98.6806 31.331 98.7975 31.2142C98.9144 31.0974 98.9801 30.939 98.9801 30.7738V27.3721C98.9836 27.2875 98.9698 27.2031 98.9396 27.1241C98.9094 27.045 98.8634 26.9729 98.8044 26.9122C98.7453 26.8515 98.6745 26.8035 98.5963 26.771C98.5181 26.7385 98.434 26.7224 98.3493 26.7234L98.342 26.7345ZM93.0339 26.6313C92.9238 26.6342 92.8161 26.6635 92.7198 26.7168C92.6235 26.77 92.5415 26.8456 92.4805 26.9372L90.603 29.2775V27.2505C90.603 27.0853 90.5373 26.9268 90.4204 26.81C90.3035 26.6932 90.1449 26.6276 89.9796 26.6276C89.8142 26.6276 89.6557 26.6932 89.5388 26.81C89.4219 26.9268 89.3562 27.0853 89.3562 27.2505V30.7627C89.3537 30.8456 89.3679 30.9281 89.398 31.0054C89.428 31.0826 89.4732 31.1531 89.531 31.2125C89.5888 31.272 89.658 31.3193 89.7344 31.3515C89.8108 31.3838 89.8929 31.4004 89.9759 31.4003C90.0858 31.3971 90.1935 31.3677 90.2897 31.3145C90.386 31.2613 90.4681 31.1858 90.5292 31.0944L92.4105 28.7615V30.7627C92.4105 30.927 92.4757 31.0845 92.592 31.2006C92.7082 31.3167 92.8658 31.3819 93.0302 31.3819C93.1945 31.3819 93.3521 31.3167 93.4684 31.2006C93.5846 31.0845 93.6499 30.927 93.6499 30.7627V27.2505C93.6523 27.1689 93.6384 27.0877 93.609 27.0115C93.5796 26.9354 93.5352 26.8659 93.4785 26.8072C93.4217 26.7485 93.3539 26.7017 93.2788 26.6696C93.2037 26.6375 93.1229 26.6207 93.0412 26.6202L93.0339 26.6313ZM85.8888 30.2763C85.7275 30.2764 85.5681 30.243 85.4205 30.178C85.273 30.1131 85.1406 30.0181 85.0319 29.8991C84.9232 29.7801 84.8406 29.6397 84.7894 29.487C84.7381 29.3343 84.7193 29.1725 84.7342 29.0121C84.7186 28.8521 84.737 28.6906 84.7881 28.5382C84.8393 28.3858 84.9221 28.2459 85.031 28.1276C85.14 28.0094 85.2727 27.9154 85.4205 27.8519C85.5683 27.7884 85.7279 27.7567 85.8888 27.7591C86.2111 27.7765 86.5144 27.9167 86.7364 28.1508C86.9584 28.3849 87.0821 28.6952 87.0821 29.0177C87.0821 29.3402 86.9584 29.6504 86.7364 29.8845C86.5144 30.1186 86.2111 30.2588 85.8888 30.2763ZM86.1212 26.6313C85.8602 26.6201 85.6 26.6664 85.359 26.7671C85.118 26.8677 84.9022 27.0202 84.7268 27.2136C84.7249 27.0559 84.6606 26.9054 84.5479 26.7949C84.4352 26.6844 84.2834 26.6229 84.1255 26.6239C84.0438 26.6224 83.9625 26.6374 83.8866 26.668C83.8108 26.6986 83.7418 26.7441 83.684 26.8019C83.6262 26.8597 83.5806 26.9286 83.5499 27.0044C83.5193 27.0802 83.5043 27.1614 83.5058 27.2431V32.4433C83.5058 32.6085 83.5715 32.767 83.6884 32.8838C83.8053 33.0006 83.9639 33.0662 84.1292 33.0662C84.2946 33.0662 84.4531 33.0006 84.57 32.8838C84.687 32.767 84.7526 32.6085 84.7526 32.4433V30.8586C84.9284 31.0425 85.1413 31.1869 85.3773 31.2822C85.6133 31.3776 85.8668 31.4216 86.1212 31.4114C87.4012 31.4114 88.3344 30.3942 88.3344 29.0121C88.3344 27.6301 87.4085 26.6202 86.1285 26.6202L86.1212 26.6313ZM80.0347 27.7664C80.3654 27.7664 80.6825 27.8977 80.9164 28.1313C81.1502 28.3649 81.2815 28.6817 81.2815 29.0121C81.2815 29.3425 81.1502 29.6594 80.9164 29.893C80.6825 30.1266 80.3654 30.2578 80.0347 30.2578C79.8745 30.2596 79.7156 30.2285 79.5679 30.1663C79.4202 30.1042 79.2869 30.0124 79.1762 29.8966C79.0655 29.7808 78.9798 29.6435 78.9245 29.4933C78.8691 29.3431 78.8452 29.183 78.8543 29.0232C78.8421 28.8604 78.8638 28.6969 78.918 28.5429C78.9723 28.3889 79.058 28.2479 79.1696 28.1287C79.2813 28.0096 79.4165 27.9149 79.5667 27.8506C79.7168 27.7863 79.8787 27.7539 80.0421 27.7554L80.0347 27.7664ZM80.0347 26.6313C79.4018 26.6313 78.7947 26.8825 78.3471 27.3297C77.8996 27.7769 77.6481 28.3834 77.6481 29.0158C77.6481 29.6482 77.8996 30.2547 78.3471 30.7019C78.7947 31.1491 79.4018 31.4003 80.0347 31.4003C80.6677 31.4003 81.2747 31.1491 81.7223 30.7019C82.1699 30.2547 82.4214 29.6482 82.4214 29.0158C82.4214 28.3834 82.1699 27.7769 81.7223 27.3297C81.2747 26.8825 80.6677 26.6313 80.0347 26.6313ZM75.0586 31.4225C75.1419 31.4235 75.2245 31.4076 75.3014 31.3757C75.3783 31.3438 75.4478 31.2966 75.5058 31.2369C75.5638 31.1773 75.6091 31.1064 75.6387 31.0287C75.6684 30.9509 75.6819 30.868 75.6783 30.7849V27.7885H76.6669C76.7373 27.7916 76.8077 27.7801 76.8734 27.7548C76.9392 27.7295 76.9991 27.6909 77.0493 27.6415C77.0995 27.592 77.1389 27.5328 77.1652 27.4674C77.1914 27.402 77.2039 27.3319 77.2018 27.2615C77.2033 27.1913 77.1905 27.1214 77.1641 27.0563C77.1376 26.9912 77.0982 26.9321 77.0481 26.8828C76.998 26.8334 76.9384 26.7948 76.8728 26.7693C76.8073 26.7438 76.7372 26.732 76.6669 26.7345H73.4614C73.3262 26.7334 73.1958 26.7845 73.0975 26.8773C72.9992 26.97 72.9406 27.0971 72.9339 27.232C72.9324 27.3023 72.9452 27.3721 72.9716 27.4373C72.998 27.5024 73.0375 27.5614 73.0876 27.6108C73.1377 27.6601 73.1973 27.6988 73.2629 27.7242C73.3284 27.7497 73.3985 27.7616 73.4688 27.7591H74.45V30.7554C74.446 30.8386 74.459 30.9219 74.4881 31C74.5173 31.0781 74.562 31.1495 74.6196 31.2098C74.6772 31.2701 74.7465 31.3181 74.8232 31.3508C74.9 31.3836 74.9826 31.4004 75.066 31.4003L75.0586 31.4225ZM71.617 26.6313C71.5069 26.6336 71.3989 26.6626 71.3025 26.7159C71.2061 26.7692 71.1242 26.8452 71.0637 26.9372L69.2083 29.2775V27.2505C69.2083 27.0853 69.1426 26.9268 69.0257 26.81C68.9088 26.6932 68.7502 26.6276 68.5849 26.6276C68.4195 26.6276 68.261 26.6932 68.1441 26.81C68.0272 26.9268 67.9615 27.0853 67.9615 27.2505V30.7627C67.9585 30.8454 67.9722 30.9278 68.0019 31.0051C68.0315 31.0823 68.0764 31.1528 68.1339 31.2123C68.1914 31.2718 68.2603 31.3192 68.3365 31.3515C68.4128 31.3838 68.4947 31.4004 68.5775 31.4003C68.6881 31.3977 68.7964 31.3685 68.8934 31.3153C68.9903 31.2621 69.073 31.1863 69.1345 31.0944L71.0158 28.7615V30.7627C71.0158 30.927 71.0811 31.0845 71.1973 31.2006C71.3135 31.3167 71.4711 31.3819 71.6355 31.3819C71.7998 31.3819 71.9575 31.3167 72.0737 31.2006C72.1899 31.0845 72.2552 30.927 72.2552 30.7627V27.2505C72.2577 27.167 72.2432 27.0839 72.2124 27.0063C72.1816 26.9287 72.1352 26.8582 72.0761 26.7991C72.017 26.7401 71.9465 26.6938 71.8688 26.663C71.7911 26.6322 71.7079 26.6177 71.6244 26.6202L71.617 26.6313ZM64.4719 30.2763C64.3107 30.2764 64.1512 30.243 64.0037 30.178C63.8561 30.1131 63.7238 30.0181 63.6151 29.8991C63.5064 29.7801 63.4238 29.6397 63.3725 29.487C63.3213 29.3343 63.3025 29.1725 63.3174 29.0121C63.3018 28.8521 63.3202 28.6906 63.3713 28.5382C63.4225 28.3858 63.5052 28.2459 63.6142 28.1276C63.7232 28.0094 63.8559 27.9154 64.0037 27.8519C64.1515 27.7884 64.3111 27.7567 64.4719 27.7591C64.7942 27.7765 65.0976 27.9167 65.3196 28.1508C65.5416 28.3849 65.6653 28.6952 65.6653 29.0177C65.6653 29.3402 65.5416 29.6504 65.3196 29.8845C65.0976 30.1186 64.7942 30.2588 64.4719 30.2763ZM64.7006 26.6313C64.4398 26.6208 64.1798 26.6675 63.9389 26.7681C63.698 26.8687 63.4821 27.0208 63.3063 27.2136C63.3058 27.1357 63.29 27.0586 63.2597 26.9868C63.2294 26.915 63.1852 26.8499 63.1297 26.7951C63.0743 26.7404 63.0085 26.6971 62.9363 26.6677C62.864 26.6383 62.7867 26.6234 62.7087 26.6239C62.6269 26.6224 62.5457 26.6374 62.4698 26.668C62.3939 26.6986 62.325 26.7441 62.2672 26.8019C62.2093 26.8597 62.1637 26.9286 62.1331 27.0044C62.1025 27.0802 62.0875 27.1614 62.089 27.2431V32.4433C62.089 32.6085 62.1547 32.767 62.2716 32.8838C62.3885 33.0006 62.5471 33.0662 62.7124 33.0662C62.8777 33.0662 63.0363 33.0006 63.1532 32.8838C63.2701 32.767 63.3358 32.6085 63.3358 32.4433V30.8586C63.511 31.0422 63.7233 31.1865 63.9586 31.2818C64.194 31.3771 64.4469 31.4213 64.7006 31.4114C65.9843 31.4114 66.9139 30.3942 66.9139 29.0121C66.9139 27.6301 65.9917 26.6202 64.708 26.6202L64.7006 26.6313ZM58.6179 30.2763C58.4567 30.2764 58.2972 30.243 58.1496 30.178C58.0021 30.1131 57.8697 30.0181 57.7611 29.8991C57.6524 29.7801 57.5698 29.6397 57.5185 29.487C57.4672 29.3343 57.4484 29.1725 57.4633 29.0121C57.4477 28.8521 57.4661 28.6906 57.5173 28.5382C57.5684 28.3858 57.6512 28.2459 57.7602 28.1276C57.8691 28.0094 58.0019 27.9154 58.1497 27.8519C58.2975 27.7884 58.457 27.7567 58.6179 27.7591C58.9402 27.7765 59.2436 27.9167 59.4656 28.1508C59.6875 28.3849 59.8113 28.6952 59.8113 29.0177C59.8113 29.3402 59.6875 29.6504 59.4656 29.8845C59.2436 30.1186 58.9402 30.2588 58.6179 30.2763ZM58.8503 26.6313C58.5893 26.6201 58.3291 26.6664 58.0881 26.7671C57.8471 26.8677 57.6313 27.0202 57.456 27.2136C57.454 27.0559 57.3897 26.9054 57.277 26.7949C57.1644 26.6844 57.0125 26.6229 56.8547 26.6239C56.7729 26.6224 56.6916 26.6374 56.6158 26.668C56.5399 26.6986 56.471 26.7441 56.4131 26.8019C56.3553 26.8597 56.3097 26.9286 56.2791 27.0044C56.2485 27.0802 56.2335 27.1614 56.235 27.2431V32.4433C56.235 32.6085 56.3007 32.767 56.4176 32.8838C56.5345 33.0006 56.693 33.0662 56.8584 33.0662C57.0237 33.0662 57.1823 33.0006 57.2992 32.8838C57.4161 32.767 57.4818 32.6085 57.4818 32.4433V30.8586C57.6577 31.0423 57.8706 31.1866 58.1066 31.2819C58.3425 31.3772 58.596 31.4214 58.8503 31.4114C60.134 31.4114 61.0635 30.3942 61.0635 29.0121C61.0635 27.6301 60.1414 26.6202 58.8577 26.6202L58.8503 26.6313ZM53.0221 27.6374C53.1485 27.6289 53.2754 27.6463 53.3948 27.6887C53.5142 27.7311 53.6237 27.7976 53.7164 27.8839C53.809 27.9703 53.883 28.0748 53.9336 28.1909C53.9842 28.307 54.0105 28.4322 54.0107 28.5588H51.9339C51.9752 28.2984 52.1084 28.0613 52.3093 27.8904C52.5101 27.7194 52.7656 27.6258 53.0295 27.6264L53.0221 27.6374ZM53.0516 26.6313C52.737 26.6267 52.4247 26.6857 52.1334 26.8045C51.8421 26.9234 51.5778 27.0998 51.3564 27.3231C51.1349 27.5464 50.9609 27.8121 50.8446 28.1042C50.7283 28.3964 50.6723 28.7089 50.6797 29.0232C50.6789 29.3465 50.7438 29.6666 50.8706 29.964C50.9974 30.2615 51.1834 30.5301 51.4174 30.7534C51.6513 30.9768 51.9282 31.1503 52.2314 31.2634C52.5345 31.3765 52.8575 31.4269 53.1807 31.4114C53.6953 31.4165 54.1998 31.269 54.6304 30.9876C54.7234 30.9405 54.8018 30.869 54.8571 30.7806C54.9123 30.6923 54.9424 30.5905 54.9439 30.4863C54.9444 30.4199 54.9316 30.3541 54.906 30.2927C54.8805 30.2314 54.8428 30.1758 54.7953 30.1294C54.7478 30.0829 54.6914 30.0466 54.6294 30.0224C54.5675 29.9982 54.5013 29.9868 54.4349 29.9888C54.3401 29.9914 54.248 30.0208 54.1693 30.0736C53.8826 30.2479 53.5532 30.3397 53.2176 30.3389C52.931 30.3662 52.644 30.2903 52.4086 30.1247C52.1732 29.9591 52.0048 29.7148 51.9339 29.436H54.5382C54.6258 29.4443 54.7142 29.434 54.7975 29.4058C54.8809 29.3775 54.9573 29.332 55.0218 29.2721C55.0863 29.2122 55.1373 29.1394 55.1716 29.0583C55.2058 28.9773 55.2225 28.89 55.2206 28.8021V28.7726C55.2288 28.4871 55.1784 28.2029 55.0726 27.9376C54.9668 27.6723 54.8077 27.4314 54.6052 27.2298C54.4027 27.0281 54.1611 26.8701 53.8952 26.7652C53.6293 26.6604 53.3447 26.6111 53.059 26.6202L53.0516 26.6313ZM48.1493 31.4225C48.2325 31.4235 48.3151 31.4076 48.392 31.3757C48.4689 31.3438 48.5385 31.2966 48.5965 31.2369C48.6545 31.1773 48.6997 31.1064 48.7293 31.0287C48.759 30.9509 48.7725 30.868 48.769 30.7849V27.7885H49.7575C49.828 27.7916 49.8983 27.7801 49.9641 27.7548C50.0299 27.7295 50.0897 27.6909 50.1399 27.6415C50.1901 27.592 50.2296 27.5328 50.2558 27.4674C50.2821 27.402 50.2945 27.3319 50.2924 27.2615C50.294 27.1913 50.2811 27.1214 50.2547 27.0563C50.2283 26.9912 50.1888 26.9321 50.1387 26.8828C50.0887 26.8334 50.029 26.7948 49.9635 26.7693C49.8979 26.7438 49.8278 26.732 49.7575 26.7345H46.5594C46.4894 26.733 46.4198 26.7456 46.3547 26.7714C46.2896 26.7973 46.2304 26.836 46.1805 26.8851C46.1307 26.9342 46.0912 26.9929 46.0644 27.0575C46.0376 27.1222 46.024 27.1915 46.0245 27.2615C46.023 27.3318 46.0358 27.4016 46.0622 27.4668C46.0887 27.5319 46.1281 27.5909 46.1782 27.6403C46.2283 27.6896 46.2879 27.7282 46.3535 27.7537C46.419 27.7792 46.4891 27.7911 46.5594 27.7885H47.5369V30.7849C47.5379 30.9484 47.6036 31.105 47.7197 31.2203C47.8358 31.3356 47.9929 31.4003 48.1566 31.4003L48.1493 31.4225Z" fill="#C71157"/>
</g>
<defs>
<clipPath id="clip0_218_3395">
<rect width="147" height="36" fill="white"/>
</clipPath>
</defs>
</svg>
